M48
; DRILL file {KiCad (6.0.7)} date Thu Nov 16 10:54:15 2023
; FORMAT={-:-/ absolute / inch / decimal}
; #@! TF.CreationDate,2023-11-16T10:54:15-06:00
; #@! TF.GenerationSoftware,Kicad,Pcbnew,(6.0.7)
; #@! TF.FileFunction,Plated,1,2,PTH
FMAT,2
INCH
; #@! TA.AperFunction,Plated,PTH,ViaDrill
T1C0.0197
; #@! TA.AperFunction,Plated,PTH,ComponentDrill
T2C0.0197
; #@! TA.AperFunction,Plated,PTH,ComponentDrill
T3C0.0300
; #@! TA.AperFunction,Plated,PTH,ComponentDrill
T4C0.0315
; #@! TA.AperFunction,Plated,PTH,ComponentDrill
T5C0.0394
; #@! TA.AperFunction,Plated,PTH,ComponentDrill
T6C0.1260
%
G90
G05
T1
X4.2126Y-3.622
X4.2126Y-3.937
X4.685Y-2.6181
X5.1772Y-2.7756
T2
X4.2165Y-2.0866
X4.2442Y-2.0198
X4.2442Y-2.1534
X4.311Y-1.9921
X4.311Y-2.1811
X4.3778Y-2.0198
X4.3778Y-2.1534
X4.4055Y-2.0866
X4.4528Y-4.3504
X4.4804Y-4.2836
X4.4804Y-4.4172
X4.5472Y-4.2559
X4.5472Y-4.4449
X4.6141Y-4.2836
X4.6141Y-4.4172
X4.6417Y-4.3504
X6.4803Y-3.8189
X6.508Y-3.7521
X6.508Y-3.8857
X6.5748Y-3.7244
X6.5748Y-3.9134
X6.6416Y-3.7521
X6.6416Y-3.8857
X6.6693Y-3.8189
T3
X4.9661Y-2.969
X4.97Y-2.2613
X5.0645Y-2.969
X5.0684Y-2.2613
X5.1629Y-2.969
X5.1668Y-2.2613
X5.2613Y-2.969
X5.2653Y-2.2613
X5.3627Y-2.969
X5.3667Y-2.2613
X5.4611Y-2.969
X5.4651Y-2.2613
X5.5596Y-2.969
X5.5635Y-2.2613
X5.658Y-2.969
X5.6619Y-2.2613
X5.7564Y-2.969
X5.7604Y-2.2613
X5.8548Y-2.969
X5.8588Y-2.2613
X5.9533Y-2.969
X5.9572Y-2.2613
X6.0517Y-2.969
X6.0556Y-2.2613
X6.1531Y-2.969
X6.157Y-2.2613
X6.2515Y-2.969
X6.2554Y-2.2613
X6.3499Y-2.969
X6.3539Y-2.2613
X6.4483Y-2.969
X6.4523Y-2.2613
X6.5468Y-2.969
X6.5507Y-2.2613
T4
X3.1953Y-1.835
X3.1953Y-1.935
X3.1953Y-2.035
X3.1953Y-2.135
X3.1953Y-2.235
X3.1953Y-2.335
X3.1953Y-2.435
X3.1953Y-2.535
X3.1953Y-2.9177
X3.1953Y-3.0177
X3.1953Y-3.1177
X3.1953Y-3.2177
X3.1953Y-3.3177
X3.1953Y-3.4177
X3.1953Y-3.5177
X3.1953Y-3.6177
X3.1953Y-3.8232
X3.1953Y-3.9232
X3.1953Y-4.0232
X3.1953Y-4.1232
X3.1953Y-4.2232
X3.1953Y-4.3232
X3.1953Y-4.4232
X3.1953Y-4.5232
X3.6953Y-1.835
X3.6953Y-1.935
X3.6953Y-2.035
X3.6953Y-2.135
X3.6953Y-2.235
X3.6953Y-2.335
X3.6953Y-2.435
X3.6953Y-2.535
X3.6953Y-2.9177
X3.6953Y-3.0177
X3.6953Y-3.1177
X3.6953Y-3.2177
X3.6953Y-3.3177
X3.6953Y-3.4177
X3.6953Y-3.5177
X3.6953Y-3.6177
X3.6953Y-3.8232
X3.6953Y-3.9232
X3.6953Y-4.0232
X3.6953Y-4.1232
X3.6953Y-4.2232
X3.6953Y-4.3232
X3.6953Y-4.4232
X3.6953Y-4.5232
T5
X2.9724Y-4.6654
X2.9724Y-4.7654
X2.9921Y-2.0276
X2.9921Y-2.1276
X2.9921Y-2.2276
X2.9921Y-2.3276
X2.9921Y-3.1299
X2.9921Y-3.2299
X2.9921Y-3.3299
X2.9921Y-3.4299
X2.9921Y-4.0236
X2.9921Y-4.1236
X2.9921Y-4.2236
X2.9921Y-4.3236
X4.2323Y-3.189
X4.2323Y-3.289
X4.4094Y-2.5287
X4.4094Y-2.6287
X4.9675Y-3.2874
X4.9876Y-1.9094
X5.0675Y-3.2874
X5.0876Y-1.9094
X5.1675Y-3.2874
X5.1876Y-1.9094
X5.2675Y-3.2874
X5.2876Y-1.9094
X5.3675Y-3.2874
X5.3876Y-1.9094
X5.4675Y-3.2874
X5.4876Y-1.9094
X5.5675Y-3.2874
X5.5876Y-1.9094
X5.6675Y-3.2874
X5.6876Y-1.9094
X5.7675Y-3.2874
X5.7876Y-1.9094
X5.8675Y-3.2874
X5.8876Y-1.9094
X5.9675Y-3.2874
X5.9876Y-1.9094
X6.0675Y-3.2874
X6.0876Y-1.9094
X6.1675Y-3.2874
X6.1876Y-1.9094
X6.2675Y-3.2874
X6.2876Y-1.9094
X6.3675Y-3.2874
X6.3876Y-1.9094
X6.4675Y-3.2874
X6.4876Y-1.9094
X6.5675Y-3.2874
X6.5876Y-1.9094
T6
X4.311Y-2.0866
X4.5472Y-4.3504
X6.5748Y-3.8189
T0
M30
