%TF.GenerationSoftware,KiCad,Pcbnew,(6.0.7)*%
%TF.CreationDate,2023-11-16T10:53:28-06:00*%
%TF.ProjectId,Robot_arm,526f626f-745f-4617-926d-2e6b69636164,rev?*%
%TF.SameCoordinates,Original*%
%TF.FileFunction,Soldermask,Top*%
%TF.FilePolarity,Negative*%
%FSLAX46Y46*%
G04 Gerber Fmt 4.6, Leading zero omitted, Abs format (unit mm)*
G04 Created by KiCad (PCBNEW (6.0.7)) date 2023-11-16 10:53:28*
%MOMM*%
%LPD*%
G01*
G04 APERTURE LIST*
%ADD10C,0.800000*%
%ADD11C,6.400000*%
%ADD12R,1.700000X1.700000*%
%ADD13O,1.700000X1.700000*%
%ADD14R,1.524000X1.524000*%
%ADD15R,1.600000X1.600000*%
%ADD16O,1.600000X1.600000*%
G04 APERTURE END LIST*
D10*
%TO.C,H3*%
X109500000Y-50600000D03*
X111197056Y-54697056D03*
X111197056Y-51302944D03*
X111900000Y-53000000D03*
D11*
X109500000Y-53000000D03*
D10*
X109500000Y-55400000D03*
X107802944Y-51302944D03*
X107802944Y-54697056D03*
X107100000Y-53000000D03*
%TD*%
%TO.C,H2*%
X167000000Y-94600000D03*
X168697056Y-98697056D03*
X168697056Y-95302944D03*
X169400000Y-97000000D03*
D11*
X167000000Y-97000000D03*
D10*
X167000000Y-99400000D03*
X165302944Y-95302944D03*
X165302944Y-98697056D03*
X164600000Y-97000000D03*
%TD*%
%TO.C,H1*%
X115500000Y-108100000D03*
X117197056Y-112197056D03*
X117197056Y-108802944D03*
X117900000Y-110500000D03*
D11*
X115500000Y-110500000D03*
D10*
X115500000Y-112900000D03*
X113802944Y-108802944D03*
X113802944Y-112197056D03*
X113100000Y-110500000D03*
%TD*%
D12*
%TO.C,J8*%
X107500000Y-83540000D03*
D13*
X107500000Y-81000000D03*
%TD*%
D14*
%TO.C,U1*%
X126237932Y-57437500D03*
X128737932Y-57437500D03*
X131237932Y-57437500D03*
X133737932Y-57437500D03*
X136312932Y-57437500D03*
X138812932Y-57437500D03*
X141312932Y-57437500D03*
X143812932Y-57437500D03*
X146312932Y-57437500D03*
X148812932Y-57437500D03*
X151312932Y-57437500D03*
X153812932Y-57437500D03*
X156387932Y-57437500D03*
X158887932Y-57437500D03*
X161387932Y-57437500D03*
X163887932Y-57437500D03*
X166387932Y-57437500D03*
X166287932Y-75412500D03*
X163787932Y-75412500D03*
X161287932Y-75412500D03*
X158787932Y-75412500D03*
X156287932Y-75412500D03*
X153712932Y-75412500D03*
X151212932Y-75412500D03*
X148712932Y-75412500D03*
X146212932Y-75412500D03*
X143712932Y-75412500D03*
X141212932Y-75412500D03*
X138712932Y-75412500D03*
X136212932Y-75412500D03*
X133637932Y-75412500D03*
X131137932Y-75412500D03*
X128637932Y-75412500D03*
X126137932Y-75412500D03*
%TD*%
D12*
%TO.C,J4*%
X167325000Y-48500000D03*
D13*
X164785000Y-48500000D03*
X162245000Y-48500000D03*
X159705000Y-48500000D03*
X157165000Y-48500000D03*
X154625000Y-48500000D03*
X152085000Y-48500000D03*
X149545000Y-48500000D03*
X147005000Y-48500000D03*
X144465000Y-48500000D03*
X141925000Y-48500000D03*
X139385000Y-48500000D03*
X136845000Y-48500000D03*
X134305000Y-48500000D03*
X131765000Y-48500000D03*
X129225000Y-48500000D03*
X126685000Y-48500000D03*
%TD*%
D12*
%TO.C,J6*%
X75500000Y-118500000D03*
D13*
X75500000Y-121040000D03*
%TD*%
D12*
%TO.C,J7*%
X112000000Y-64230000D03*
D13*
X112000000Y-66770000D03*
%TD*%
D12*
%TO.C,J5*%
X126175000Y-83500000D03*
D13*
X128715000Y-83500000D03*
X131255000Y-83500000D03*
X133795000Y-83500000D03*
X136335000Y-83500000D03*
X138875000Y-83500000D03*
X141415000Y-83500000D03*
X143955000Y-83500000D03*
X146495000Y-83500000D03*
X149035000Y-83500000D03*
X151575000Y-83500000D03*
X154115000Y-83500000D03*
X156655000Y-83500000D03*
X159195000Y-83500000D03*
X161735000Y-83500000D03*
X164275000Y-83500000D03*
X166815000Y-83500000D03*
%TD*%
D15*
%TO.C,A3*%
X81160000Y-74110000D03*
D16*
X81160000Y-76650000D03*
X81160000Y-79190000D03*
X81160000Y-81730000D03*
X81160000Y-84270000D03*
X81160000Y-86810000D03*
X81160000Y-89350000D03*
X81160000Y-91890000D03*
X93860000Y-91890000D03*
X93860000Y-89350000D03*
X93860000Y-86810000D03*
X93860000Y-84270000D03*
X93860000Y-81730000D03*
X93860000Y-79190000D03*
X93860000Y-76650000D03*
X93860000Y-74110000D03*
%TD*%
D12*
%TO.C,J2*%
X76000000Y-51500000D03*
D13*
X76000000Y-54040000D03*
X76000000Y-56580000D03*
X76000000Y-59120000D03*
%TD*%
D15*
%TO.C,A2*%
X81160000Y-46610000D03*
D16*
X81160000Y-49150000D03*
X81160000Y-51690000D03*
X81160000Y-54230000D03*
X81160000Y-56770000D03*
X81160000Y-59310000D03*
X81160000Y-61850000D03*
X81160000Y-64390000D03*
X93860000Y-64390000D03*
X93860000Y-61850000D03*
X93860000Y-59310000D03*
X93860000Y-56770000D03*
X93860000Y-54230000D03*
X93860000Y-51690000D03*
X93860000Y-49150000D03*
X93860000Y-46610000D03*
%TD*%
D12*
%TO.C,J1*%
X76000000Y-102200000D03*
D13*
X76000000Y-104740000D03*
X76000000Y-107280000D03*
X76000000Y-109820000D03*
%TD*%
D12*
%TO.C,J3*%
X76000000Y-79500000D03*
D13*
X76000000Y-82040000D03*
X76000000Y-84580000D03*
X76000000Y-87120000D03*
%TD*%
D15*
%TO.C,A1*%
X81160000Y-97110000D03*
D16*
X81160000Y-99650000D03*
X81160000Y-102190000D03*
X81160000Y-104730000D03*
X81160000Y-107270000D03*
X81160000Y-109810000D03*
X81160000Y-112350000D03*
X81160000Y-114890000D03*
X93860000Y-114890000D03*
X93860000Y-112350000D03*
X93860000Y-109810000D03*
X93860000Y-107270000D03*
X93860000Y-104730000D03*
X93860000Y-102190000D03*
X93860000Y-99650000D03*
X93860000Y-97110000D03*
%TD*%
M02*
