%TF.GenerationSoftware,KiCad,Pcbnew,(6.0.7)*%
%TF.CreationDate,2023-11-16T10:53:28-06:00*%
%TF.ProjectId,Robot_arm,526f626f-745f-4617-926d-2e6b69636164,rev?*%
%TF.SameCoordinates,Original*%
%TF.FileFunction,Legend,Top*%
%TF.FilePolarity,Positive*%
%FSLAX46Y46*%
G04 Gerber Fmt 4.6, Leading zero omitted, Abs format (unit mm)*
G04 Created by KiCad (PCBNEW (6.0.7)) date 2023-11-16 10:53:28*
%MOMM*%
%LPD*%
G01*
G04 APERTURE LIST*
%ADD10C,0.300000*%
%ADD11C,0.150000*%
%ADD12C,0.120000*%
G04 APERTURE END LIST*
D10*
X139500000Y-104471071D02*
X139500000Y-102971071D01*
X139857142Y-102971071D01*
X140071428Y-103042500D01*
X140214285Y-103185357D01*
X140285714Y-103328214D01*
X140357142Y-103613928D01*
X140357142Y-103828214D01*
X140285714Y-104113928D01*
X140214285Y-104256785D01*
X140071428Y-104399642D01*
X139857142Y-104471071D01*
X139500000Y-104471071D01*
X141571428Y-104399642D02*
X141428571Y-104471071D01*
X141142857Y-104471071D01*
X141000000Y-104399642D01*
X140928571Y-104256785D01*
X140928571Y-103685357D01*
X141000000Y-103542500D01*
X141142857Y-103471071D01*
X141428571Y-103471071D01*
X141571428Y-103542500D01*
X141642857Y-103685357D01*
X141642857Y-103828214D01*
X140928571Y-103971071D01*
X142214285Y-104399642D02*
X142357142Y-104471071D01*
X142642857Y-104471071D01*
X142785714Y-104399642D01*
X142857142Y-104256785D01*
X142857142Y-104185357D01*
X142785714Y-104042500D01*
X142642857Y-103971071D01*
X142428571Y-103971071D01*
X142285714Y-103899642D01*
X142214285Y-103756785D01*
X142214285Y-103685357D01*
X142285714Y-103542500D01*
X142428571Y-103471071D01*
X142642857Y-103471071D01*
X142785714Y-103542500D01*
X143500000Y-104471071D02*
X143500000Y-103471071D01*
X143500000Y-102971071D02*
X143428571Y-103042500D01*
X143500000Y-103113928D01*
X143571428Y-103042500D01*
X143500000Y-102971071D01*
X143500000Y-103113928D01*
X144857142Y-103471071D02*
X144857142Y-104685357D01*
X144785714Y-104828214D01*
X144714285Y-104899642D01*
X144571428Y-104971071D01*
X144357142Y-104971071D01*
X144214285Y-104899642D01*
X144857142Y-104399642D02*
X144714285Y-104471071D01*
X144428571Y-104471071D01*
X144285714Y-104399642D01*
X144214285Y-104328214D01*
X144142857Y-104185357D01*
X144142857Y-103756785D01*
X144214285Y-103613928D01*
X144285714Y-103542500D01*
X144428571Y-103471071D01*
X144714285Y-103471071D01*
X144857142Y-103542500D01*
X145571428Y-103471071D02*
X145571428Y-104471071D01*
X145571428Y-103613928D02*
X145642857Y-103542500D01*
X145785714Y-103471071D01*
X146000000Y-103471071D01*
X146142857Y-103542500D01*
X146214285Y-103685357D01*
X146214285Y-104471071D01*
X147500000Y-104399642D02*
X147357142Y-104471071D01*
X147071428Y-104471071D01*
X146928571Y-104399642D01*
X146857142Y-104256785D01*
X146857142Y-103685357D01*
X146928571Y-103542500D01*
X147071428Y-103471071D01*
X147357142Y-103471071D01*
X147500000Y-103542500D01*
X147571428Y-103685357D01*
X147571428Y-103828214D01*
X146857142Y-103971071D01*
X148857142Y-104471071D02*
X148857142Y-102971071D01*
X148857142Y-104399642D02*
X148714285Y-104471071D01*
X148428571Y-104471071D01*
X148285714Y-104399642D01*
X148214285Y-104328214D01*
X148142857Y-104185357D01*
X148142857Y-103756785D01*
X148214285Y-103613928D01*
X148285714Y-103542500D01*
X148428571Y-103471071D01*
X148714285Y-103471071D01*
X148857142Y-103542500D01*
X150714285Y-104471071D02*
X150714285Y-102971071D01*
X150714285Y-103542500D02*
X150857142Y-103471071D01*
X151142857Y-103471071D01*
X151285714Y-103542500D01*
X151357142Y-103613928D01*
X151428571Y-103756785D01*
X151428571Y-104185357D01*
X151357142Y-104328214D01*
X151285714Y-104399642D01*
X151142857Y-104471071D01*
X150857142Y-104471071D01*
X150714285Y-104399642D01*
X151928571Y-103471071D02*
X152285714Y-104471071D01*
X152642857Y-103471071D02*
X152285714Y-104471071D01*
X152142857Y-104828214D01*
X152071428Y-104899642D01*
X151928571Y-104971071D01*
X142857142Y-105386071D02*
X143357142Y-106886071D01*
X143857142Y-105386071D01*
X145000000Y-106886071D02*
X145000000Y-106100357D01*
X144928571Y-105957500D01*
X144785714Y-105886071D01*
X144500000Y-105886071D01*
X144357142Y-105957500D01*
X145000000Y-106814642D02*
X144857142Y-106886071D01*
X144500000Y-106886071D01*
X144357142Y-106814642D01*
X144285714Y-106671785D01*
X144285714Y-106528928D01*
X144357142Y-106386071D01*
X144500000Y-106314642D01*
X144857142Y-106314642D01*
X145000000Y-106243214D01*
X145714285Y-106886071D02*
X145714285Y-105886071D01*
X145714285Y-106028928D02*
X145785714Y-105957500D01*
X145928571Y-105886071D01*
X146142857Y-105886071D01*
X146285714Y-105957500D01*
X146357142Y-106100357D01*
X146357142Y-106886071D01*
X146357142Y-106100357D02*
X146428571Y-105957500D01*
X146571428Y-105886071D01*
X146785714Y-105886071D01*
X146928571Y-105957500D01*
X147000000Y-106100357D01*
X147000000Y-106886071D01*
X147642857Y-106814642D02*
X147785714Y-106886071D01*
X148071428Y-106886071D01*
X148214285Y-106814642D01*
X148285714Y-106671785D01*
X148285714Y-106600357D01*
X148214285Y-106457500D01*
X148071428Y-106386071D01*
X147857142Y-106386071D01*
X147714285Y-106314642D01*
X147642857Y-106171785D01*
X147642857Y-106100357D01*
X147714285Y-105957500D01*
X147857142Y-105886071D01*
X148071428Y-105886071D01*
X148214285Y-105957500D01*
X148928571Y-106886071D02*
X148928571Y-105886071D01*
X148928571Y-105386071D02*
X148857142Y-105457500D01*
X148928571Y-105528928D01*
X149000000Y-105457500D01*
X148928571Y-105386071D01*
X148928571Y-105528928D01*
D11*
%TO.C,H3*%
X108738095Y-49252380D02*
X108738095Y-48252380D01*
X108738095Y-48728571D02*
X109309523Y-48728571D01*
X109309523Y-49252380D02*
X109309523Y-48252380D01*
X109690476Y-48252380D02*
X110309523Y-48252380D01*
X109976190Y-48633333D01*
X110119047Y-48633333D01*
X110214285Y-48680952D01*
X110261904Y-48728571D01*
X110309523Y-48823809D01*
X110309523Y-49061904D01*
X110261904Y-49157142D01*
X110214285Y-49204761D01*
X110119047Y-49252380D01*
X109833333Y-49252380D01*
X109738095Y-49204761D01*
X109690476Y-49157142D01*
%TO.C,H2*%
X166238095Y-93252380D02*
X166238095Y-92252380D01*
X166238095Y-92728571D02*
X166809523Y-92728571D01*
X166809523Y-93252380D02*
X166809523Y-92252380D01*
X167238095Y-92347619D02*
X167285714Y-92300000D01*
X167380952Y-92252380D01*
X167619047Y-92252380D01*
X167714285Y-92300000D01*
X167761904Y-92347619D01*
X167809523Y-92442857D01*
X167809523Y-92538095D01*
X167761904Y-92680952D01*
X167190476Y-93252380D01*
X167809523Y-93252380D01*
%TO.C,H1*%
X114738095Y-106752380D02*
X114738095Y-105752380D01*
X114738095Y-106228571D02*
X115309523Y-106228571D01*
X115309523Y-106752380D02*
X115309523Y-105752380D01*
X116309523Y-106752380D02*
X115738095Y-106752380D01*
X116023809Y-106752380D02*
X116023809Y-105752380D01*
X115928571Y-105895238D01*
X115833333Y-105990476D01*
X115738095Y-106038095D01*
%TO.C,J8*%
X107166666Y-76952380D02*
X107166666Y-77666666D01*
X107119047Y-77809523D01*
X107023809Y-77904761D01*
X106880952Y-77952380D01*
X106785714Y-77952380D01*
X107785714Y-77380952D02*
X107690476Y-77333333D01*
X107642857Y-77285714D01*
X107595238Y-77190476D01*
X107595238Y-77142857D01*
X107642857Y-77047619D01*
X107690476Y-77000000D01*
X107785714Y-76952380D01*
X107976190Y-76952380D01*
X108071428Y-77000000D01*
X108119047Y-77047619D01*
X108166666Y-77142857D01*
X108166666Y-77190476D01*
X108119047Y-77285714D01*
X108071428Y-77333333D01*
X107976190Y-77380952D01*
X107785714Y-77380952D01*
X107690476Y-77428571D01*
X107642857Y-77476190D01*
X107595238Y-77571428D01*
X107595238Y-77761904D01*
X107642857Y-77857142D01*
X107690476Y-77904761D01*
X107785714Y-77952380D01*
X107976190Y-77952380D01*
X108071428Y-77904761D01*
X108119047Y-77857142D01*
X108166666Y-77761904D01*
X108166666Y-77571428D01*
X108119047Y-77476190D01*
X108071428Y-77428571D01*
X107976190Y-77380952D01*
%TO.C,U1*%
X144776027Y-63589880D02*
X144776027Y-64399404D01*
X144823646Y-64494642D01*
X144871265Y-64542261D01*
X144966503Y-64589880D01*
X145156979Y-64589880D01*
X145252217Y-64542261D01*
X145299836Y-64494642D01*
X145347455Y-64399404D01*
X145347455Y-63589880D01*
X146347455Y-64589880D02*
X145776027Y-64589880D01*
X146061741Y-64589880D02*
X146061741Y-63589880D01*
X145966503Y-63732738D01*
X145871265Y-63827976D01*
X145776027Y-63875595D01*
X128666503Y-56143452D02*
X128714122Y-56000595D01*
X128761741Y-55952976D01*
X128856979Y-55905357D01*
X128999836Y-55905357D01*
X129095074Y-55952976D01*
X129142693Y-56000595D01*
X129190312Y-56095833D01*
X129190312Y-56476785D01*
X128190312Y-56476785D01*
X128190312Y-56143452D01*
X128237932Y-56048214D01*
X128285551Y-56000595D01*
X128380789Y-55952976D01*
X128476027Y-55952976D01*
X128571265Y-56000595D01*
X128618884Y-56048214D01*
X128666503Y-56143452D01*
X128666503Y-56476785D01*
X129190312Y-54952976D02*
X129190312Y-55524404D01*
X129190312Y-55238690D02*
X128190312Y-55238690D01*
X128333170Y-55333928D01*
X128428408Y-55429166D01*
X128476027Y-55524404D01*
X128190312Y-54333928D02*
X128190312Y-54238690D01*
X128237932Y-54143452D01*
X128285551Y-54095833D01*
X128380789Y-54048214D01*
X128571265Y-54000595D01*
X128809360Y-54000595D01*
X128999836Y-54048214D01*
X129095074Y-54095833D01*
X129142693Y-54143452D01*
X129190312Y-54238690D01*
X129190312Y-54333928D01*
X129142693Y-54429166D01*
X129095074Y-54476785D01*
X128999836Y-54524404D01*
X128809360Y-54572023D01*
X128571265Y-54572023D01*
X128380789Y-54524404D01*
X128285551Y-54476785D01*
X128237932Y-54429166D01*
X128190312Y-54333928D01*
X148979598Y-78877976D02*
X148979598Y-78401785D01*
X149265312Y-78973214D02*
X148265312Y-78639880D01*
X149265312Y-78306547D01*
X149265312Y-77449404D02*
X149265312Y-78020833D01*
X149265312Y-77735119D02*
X148265312Y-77735119D01*
X148408170Y-77830357D01*
X148503408Y-77925595D01*
X148551027Y-78020833D01*
X148265312Y-76544642D02*
X148265312Y-77020833D01*
X148741503Y-77068452D01*
X148693884Y-77020833D01*
X148646265Y-76925595D01*
X148646265Y-76687500D01*
X148693884Y-76592261D01*
X148741503Y-76544642D01*
X148836741Y-76497023D01*
X149074836Y-76497023D01*
X149170074Y-76544642D01*
X149217693Y-76592261D01*
X149265312Y-76687500D01*
X149265312Y-76925595D01*
X149217693Y-77020833D01*
X149170074Y-77068452D01*
X133641503Y-78668452D02*
X133689122Y-78525595D01*
X133736741Y-78477976D01*
X133831979Y-78430357D01*
X133974836Y-78430357D01*
X134070074Y-78477976D01*
X134117693Y-78525595D01*
X134165312Y-78620833D01*
X134165312Y-79001785D01*
X133165312Y-79001785D01*
X133165312Y-78668452D01*
X133212932Y-78573214D01*
X133260551Y-78525595D01*
X133355789Y-78477976D01*
X133451027Y-78477976D01*
X133546265Y-78525595D01*
X133593884Y-78573214D01*
X133641503Y-78668452D01*
X133641503Y-79001785D01*
X134165312Y-77477976D02*
X134165312Y-78049404D01*
X134165312Y-77763690D02*
X133165312Y-77763690D01*
X133308170Y-77858928D01*
X133403408Y-77954166D01*
X133451027Y-78049404D01*
X133165312Y-76573214D02*
X133165312Y-77049404D01*
X133641503Y-77097023D01*
X133593884Y-77049404D01*
X133546265Y-76954166D01*
X133546265Y-76716071D01*
X133593884Y-76620833D01*
X133641503Y-76573214D01*
X133736741Y-76525595D01*
X133974836Y-76525595D01*
X134070074Y-76573214D01*
X134117693Y-76620833D01*
X134165312Y-76716071D01*
X134165312Y-76954166D01*
X134117693Y-77049404D01*
X134070074Y-77097023D01*
X131091503Y-78668452D02*
X131139122Y-78525595D01*
X131186741Y-78477976D01*
X131281979Y-78430357D01*
X131424836Y-78430357D01*
X131520074Y-78477976D01*
X131567693Y-78525595D01*
X131615312Y-78620833D01*
X131615312Y-79001785D01*
X130615312Y-79001785D01*
X130615312Y-78668452D01*
X130662932Y-78573214D01*
X130710551Y-78525595D01*
X130805789Y-78477976D01*
X130901027Y-78477976D01*
X130996265Y-78525595D01*
X131043884Y-78573214D01*
X131091503Y-78668452D01*
X131091503Y-79001785D01*
X131615312Y-77477976D02*
X131615312Y-78049404D01*
X131615312Y-77763690D02*
X130615312Y-77763690D01*
X130758170Y-77858928D01*
X130853408Y-77954166D01*
X130901027Y-78049404D01*
X130948646Y-76620833D02*
X131615312Y-76620833D01*
X130567693Y-76858928D02*
X131281979Y-77097023D01*
X131281979Y-76477976D01*
X156241503Y-77742261D02*
X156289122Y-77599404D01*
X156336741Y-77551785D01*
X156431979Y-77504166D01*
X156574836Y-77504166D01*
X156670074Y-77551785D01*
X156717693Y-77599404D01*
X156765312Y-77694642D01*
X156765312Y-78075595D01*
X155765312Y-78075595D01*
X155765312Y-77742261D01*
X155812932Y-77647023D01*
X155860551Y-77599404D01*
X155955789Y-77551785D01*
X156051027Y-77551785D01*
X156146265Y-77599404D01*
X156193884Y-77647023D01*
X156241503Y-77742261D01*
X156241503Y-78075595D01*
X155765312Y-76599404D02*
X155765312Y-77075595D01*
X156241503Y-77123214D01*
X156193884Y-77075595D01*
X156146265Y-76980357D01*
X156146265Y-76742261D01*
X156193884Y-76647023D01*
X156241503Y-76599404D01*
X156336741Y-76551785D01*
X156574836Y-76551785D01*
X156670074Y-76599404D01*
X156717693Y-76647023D01*
X156765312Y-76742261D01*
X156765312Y-76980357D01*
X156717693Y-77075595D01*
X156670074Y-77123214D01*
X136379598Y-78001785D02*
X136379598Y-77525595D01*
X136665312Y-78097023D02*
X135665312Y-77763690D01*
X136665312Y-77430357D01*
X136093884Y-76954166D02*
X136046265Y-77049404D01*
X135998646Y-77097023D01*
X135903408Y-77144642D01*
X135855789Y-77144642D01*
X135760551Y-77097023D01*
X135712932Y-77049404D01*
X135665312Y-76954166D01*
X135665312Y-76763690D01*
X135712932Y-76668452D01*
X135760551Y-76620833D01*
X135855789Y-76573214D01*
X135903408Y-76573214D01*
X135998646Y-76620833D01*
X136046265Y-76668452D01*
X136093884Y-76763690D01*
X136093884Y-76954166D01*
X136141503Y-77049404D01*
X136189122Y-77097023D01*
X136284360Y-77144642D01*
X136474836Y-77144642D01*
X136570074Y-77097023D01*
X136617693Y-77049404D01*
X136665312Y-76954166D01*
X136665312Y-76763690D01*
X136617693Y-76668452D01*
X136570074Y-76620833D01*
X136474836Y-76573214D01*
X136284360Y-76573214D01*
X136189122Y-76620833D01*
X136141503Y-76668452D01*
X136093884Y-76763690D01*
X151504598Y-56376785D02*
X151504598Y-55900595D01*
X151790312Y-56472023D02*
X150790312Y-56138690D01*
X151790312Y-55805357D01*
X151790312Y-54948214D02*
X151790312Y-55519642D01*
X151790312Y-55233928D02*
X150790312Y-55233928D01*
X150933170Y-55329166D01*
X151028408Y-55424404D01*
X151076027Y-55519642D01*
X156915312Y-55935119D02*
X156439122Y-56268452D01*
X156915312Y-56506547D02*
X155915312Y-56506547D01*
X155915312Y-56125595D01*
X155962932Y-56030357D01*
X156010551Y-55982738D01*
X156105789Y-55935119D01*
X156248646Y-55935119D01*
X156343884Y-55982738D01*
X156391503Y-56030357D01*
X156439122Y-56125595D01*
X156439122Y-56506547D01*
X156867693Y-55554166D02*
X156915312Y-55411309D01*
X156915312Y-55173214D01*
X156867693Y-55077976D01*
X156820074Y-55030357D01*
X156724836Y-54982738D01*
X156629598Y-54982738D01*
X156534360Y-55030357D01*
X156486741Y-55077976D01*
X156439122Y-55173214D01*
X156391503Y-55363690D01*
X156343884Y-55458928D01*
X156296265Y-55506547D01*
X156201027Y-55554166D01*
X156105789Y-55554166D01*
X156010551Y-55506547D01*
X155962932Y-55458928D01*
X155915312Y-55363690D01*
X155915312Y-55125595D01*
X155962932Y-54982738D01*
X155915312Y-54697023D02*
X155915312Y-54125595D01*
X156915312Y-54411309D02*
X155915312Y-54411309D01*
X141504598Y-78927976D02*
X141504598Y-78451785D01*
X141790312Y-79023214D02*
X140790312Y-78689880D01*
X141790312Y-78356547D01*
X141790312Y-77499404D02*
X141790312Y-78070833D01*
X141790312Y-77785119D02*
X140790312Y-77785119D01*
X140933170Y-77880357D01*
X141028408Y-77975595D01*
X141076027Y-78070833D01*
X140790312Y-76880357D02*
X140790312Y-76785119D01*
X140837932Y-76689880D01*
X140885551Y-76642261D01*
X140980789Y-76594642D01*
X141171265Y-76547023D01*
X141409360Y-76547023D01*
X141599836Y-76594642D01*
X141695074Y-76642261D01*
X141742693Y-76689880D01*
X141790312Y-76785119D01*
X141790312Y-76880357D01*
X141742693Y-76975595D01*
X141695074Y-77023214D01*
X141599836Y-77070833D01*
X141409360Y-77118452D01*
X141171265Y-77118452D01*
X140980789Y-77070833D01*
X140885551Y-77023214D01*
X140837932Y-76975595D01*
X140790312Y-76880357D01*
X126041503Y-78618452D02*
X126089122Y-78475595D01*
X126136741Y-78427976D01*
X126231979Y-78380357D01*
X126374836Y-78380357D01*
X126470074Y-78427976D01*
X126517693Y-78475595D01*
X126565312Y-78570833D01*
X126565312Y-78951785D01*
X125565312Y-78951785D01*
X125565312Y-78618452D01*
X125612932Y-78523214D01*
X125660551Y-78475595D01*
X125755789Y-78427976D01*
X125851027Y-78427976D01*
X125946265Y-78475595D01*
X125993884Y-78523214D01*
X126041503Y-78618452D01*
X126041503Y-78951785D01*
X126565312Y-77427976D02*
X126565312Y-77999404D01*
X126565312Y-77713690D02*
X125565312Y-77713690D01*
X125708170Y-77808928D01*
X125803408Y-77904166D01*
X125851027Y-77999404D01*
X125660551Y-77047023D02*
X125612932Y-76999404D01*
X125565312Y-76904166D01*
X125565312Y-76666071D01*
X125612932Y-76570833D01*
X125660551Y-76523214D01*
X125755789Y-76475595D01*
X125851027Y-76475595D01*
X125993884Y-76523214D01*
X126565312Y-77094642D01*
X126565312Y-76475595D01*
X139029598Y-77951785D02*
X139029598Y-77475595D01*
X139315312Y-78047023D02*
X138315312Y-77713690D01*
X139315312Y-77380357D01*
X139315312Y-76999404D02*
X139315312Y-76808928D01*
X139267693Y-76713690D01*
X139220074Y-76666071D01*
X139077217Y-76570833D01*
X138886741Y-76523214D01*
X138505789Y-76523214D01*
X138410551Y-76570833D01*
X138362932Y-76618452D01*
X138315312Y-76713690D01*
X138315312Y-76904166D01*
X138362932Y-76999404D01*
X138410551Y-77047023D01*
X138505789Y-77094642D01*
X138743884Y-77094642D01*
X138839122Y-77047023D01*
X138886741Y-76999404D01*
X138934360Y-76904166D01*
X138934360Y-76713690D01*
X138886741Y-76618452D01*
X138839122Y-76570833D01*
X138743884Y-76523214D01*
X161441503Y-77767261D02*
X161489122Y-77624404D01*
X161536741Y-77576785D01*
X161631979Y-77529166D01*
X161774836Y-77529166D01*
X161870074Y-77576785D01*
X161917693Y-77624404D01*
X161965312Y-77719642D01*
X161965312Y-78100595D01*
X160965312Y-78100595D01*
X160965312Y-77767261D01*
X161012932Y-77672023D01*
X161060551Y-77624404D01*
X161155789Y-77576785D01*
X161251027Y-77576785D01*
X161346265Y-77624404D01*
X161393884Y-77672023D01*
X161441503Y-77767261D01*
X161441503Y-78100595D01*
X160965312Y-77195833D02*
X160965312Y-76529166D01*
X161965312Y-76957738D01*
X149004598Y-56376785D02*
X149004598Y-55900595D01*
X149290312Y-56472023D02*
X148290312Y-56138690D01*
X149290312Y-55805357D01*
X148385551Y-55519642D02*
X148337932Y-55472023D01*
X148290312Y-55376785D01*
X148290312Y-55138690D01*
X148337932Y-55043452D01*
X148385551Y-54995833D01*
X148480789Y-54948214D01*
X148576027Y-54948214D01*
X148718884Y-54995833D01*
X149290312Y-55567261D01*
X149290312Y-54948214D01*
X165837932Y-76850595D02*
X165790312Y-76945833D01*
X165790312Y-77088690D01*
X165837932Y-77231547D01*
X165933170Y-77326785D01*
X166028408Y-77374404D01*
X166218884Y-77422023D01*
X166361741Y-77422023D01*
X166552217Y-77374404D01*
X166647455Y-77326785D01*
X166742693Y-77231547D01*
X166790312Y-77088690D01*
X166790312Y-76993452D01*
X166742693Y-76850595D01*
X166695074Y-76802976D01*
X166361741Y-76802976D01*
X166361741Y-76993452D01*
X168865312Y-67324404D02*
X169674836Y-67324404D01*
X169770074Y-67276785D01*
X169817693Y-67229166D01*
X169865312Y-67133928D01*
X169865312Y-66943452D01*
X169817693Y-66848214D01*
X169770074Y-66800595D01*
X169674836Y-66752976D01*
X168865312Y-66752976D01*
X169817693Y-66324404D02*
X169865312Y-66181547D01*
X169865312Y-65943452D01*
X169817693Y-65848214D01*
X169770074Y-65800595D01*
X169674836Y-65752976D01*
X169579598Y-65752976D01*
X169484360Y-65800595D01*
X169436741Y-65848214D01*
X169389122Y-65943452D01*
X169341503Y-66133928D01*
X169293884Y-66229166D01*
X169246265Y-66276785D01*
X169151027Y-66324404D01*
X169055789Y-66324404D01*
X168960551Y-66276785D01*
X168912932Y-66229166D01*
X168865312Y-66133928D01*
X168865312Y-65895833D01*
X168912932Y-65752976D01*
X169341503Y-64991071D02*
X169389122Y-64848214D01*
X169436741Y-64800595D01*
X169531979Y-64752976D01*
X169674836Y-64752976D01*
X169770074Y-64800595D01*
X169817693Y-64848214D01*
X169865312Y-64943452D01*
X169865312Y-65324404D01*
X168865312Y-65324404D01*
X168865312Y-64991071D01*
X168912932Y-64895833D01*
X168960551Y-64848214D01*
X169055789Y-64800595D01*
X169151027Y-64800595D01*
X169246265Y-64848214D01*
X169293884Y-64895833D01*
X169341503Y-64991071D01*
X169341503Y-65324404D01*
X161341503Y-56092261D02*
X161389122Y-55949404D01*
X161436741Y-55901785D01*
X161531979Y-55854166D01*
X161674836Y-55854166D01*
X161770074Y-55901785D01*
X161817693Y-55949404D01*
X161865312Y-56044642D01*
X161865312Y-56425595D01*
X160865312Y-56425595D01*
X160865312Y-56092261D01*
X160912932Y-55997023D01*
X160960551Y-55949404D01*
X161055789Y-55901785D01*
X161151027Y-55901785D01*
X161246265Y-55949404D01*
X161293884Y-55997023D01*
X161341503Y-56092261D01*
X161341503Y-56425595D01*
X161865312Y-55377976D02*
X161865312Y-55187500D01*
X161817693Y-55092261D01*
X161770074Y-55044642D01*
X161627217Y-54949404D01*
X161436741Y-54901785D01*
X161055789Y-54901785D01*
X160960551Y-54949404D01*
X160912932Y-54997023D01*
X160865312Y-55092261D01*
X160865312Y-55282738D01*
X160912932Y-55377976D01*
X160960551Y-55425595D01*
X161055789Y-55473214D01*
X161293884Y-55473214D01*
X161389122Y-55425595D01*
X161436741Y-55377976D01*
X161484360Y-55282738D01*
X161484360Y-55092261D01*
X161436741Y-54997023D01*
X161389122Y-54949404D01*
X161293884Y-54901785D01*
X158791503Y-77842261D02*
X158839122Y-77699404D01*
X158886741Y-77651785D01*
X158981979Y-77604166D01*
X159124836Y-77604166D01*
X159220074Y-77651785D01*
X159267693Y-77699404D01*
X159315312Y-77794642D01*
X159315312Y-78175595D01*
X158315312Y-78175595D01*
X158315312Y-77842261D01*
X158362932Y-77747023D01*
X158410551Y-77699404D01*
X158505789Y-77651785D01*
X158601027Y-77651785D01*
X158696265Y-77699404D01*
X158743884Y-77747023D01*
X158791503Y-77842261D01*
X158791503Y-78175595D01*
X158315312Y-76747023D02*
X158315312Y-76937500D01*
X158362932Y-77032738D01*
X158410551Y-77080357D01*
X158553408Y-77175595D01*
X158743884Y-77223214D01*
X159124836Y-77223214D01*
X159220074Y-77175595D01*
X159267693Y-77127976D01*
X159315312Y-77032738D01*
X159315312Y-76842261D01*
X159267693Y-76747023D01*
X159220074Y-76699404D01*
X159124836Y-76651785D01*
X158886741Y-76651785D01*
X158791503Y-76699404D01*
X158743884Y-76747023D01*
X158696265Y-76842261D01*
X158696265Y-77032738D01*
X158743884Y-77127976D01*
X158791503Y-77175595D01*
X158886741Y-77223214D01*
X143929598Y-78802976D02*
X143929598Y-78326785D01*
X144215312Y-78898214D02*
X143215312Y-78564880D01*
X144215312Y-78231547D01*
X144215312Y-77374404D02*
X144215312Y-77945833D01*
X144215312Y-77660119D02*
X143215312Y-77660119D01*
X143358170Y-77755357D01*
X143453408Y-77850595D01*
X143501027Y-77945833D01*
X144215312Y-76422023D02*
X144215312Y-76993452D01*
X144215312Y-76707738D02*
X143215312Y-76707738D01*
X143358170Y-76802976D01*
X143453408Y-76898214D01*
X143501027Y-76993452D01*
X163841503Y-55992261D02*
X163889122Y-55849404D01*
X163936741Y-55801785D01*
X164031979Y-55754166D01*
X164174836Y-55754166D01*
X164270074Y-55801785D01*
X164317693Y-55849404D01*
X164365312Y-55944642D01*
X164365312Y-56325595D01*
X163365312Y-56325595D01*
X163365312Y-55992261D01*
X163412932Y-55897023D01*
X163460551Y-55849404D01*
X163555789Y-55801785D01*
X163651027Y-55801785D01*
X163746265Y-55849404D01*
X163793884Y-55897023D01*
X163841503Y-55992261D01*
X163841503Y-56325595D01*
X163793884Y-55182738D02*
X163746265Y-55277976D01*
X163698646Y-55325595D01*
X163603408Y-55373214D01*
X163555789Y-55373214D01*
X163460551Y-55325595D01*
X163412932Y-55277976D01*
X163365312Y-55182738D01*
X163365312Y-54992261D01*
X163412932Y-54897023D01*
X163460551Y-54849404D01*
X163555789Y-54801785D01*
X163603408Y-54801785D01*
X163698646Y-54849404D01*
X163746265Y-54897023D01*
X163793884Y-54992261D01*
X163793884Y-55182738D01*
X163841503Y-55277976D01*
X163889122Y-55325595D01*
X163984360Y-55373214D01*
X164174836Y-55373214D01*
X164270074Y-55325595D01*
X164317693Y-55277976D01*
X164365312Y-55182738D01*
X164365312Y-54992261D01*
X164317693Y-54897023D01*
X164270074Y-54849404D01*
X164174836Y-54801785D01*
X163984360Y-54801785D01*
X163889122Y-54849404D01*
X163841503Y-54897023D01*
X163793884Y-54992261D01*
X146454598Y-56426785D02*
X146454598Y-55950595D01*
X146740312Y-56522023D02*
X145740312Y-56188690D01*
X146740312Y-55855357D01*
X145740312Y-55617261D02*
X145740312Y-54998214D01*
X146121265Y-55331547D01*
X146121265Y-55188690D01*
X146168884Y-55093452D01*
X146216503Y-55045833D01*
X146311741Y-54998214D01*
X146549836Y-54998214D01*
X146645074Y-55045833D01*
X146692693Y-55093452D01*
X146740312Y-55188690D01*
X146740312Y-55474404D01*
X146692693Y-55569642D01*
X146645074Y-55617261D01*
X139029598Y-56351785D02*
X139029598Y-55875595D01*
X139315312Y-56447023D02*
X138315312Y-56113690D01*
X139315312Y-55780357D01*
X138315312Y-55018452D02*
X138315312Y-55208928D01*
X138362932Y-55304166D01*
X138410551Y-55351785D01*
X138553408Y-55447023D01*
X138743884Y-55494642D01*
X139124836Y-55494642D01*
X139220074Y-55447023D01*
X139267693Y-55399404D01*
X139315312Y-55304166D01*
X139315312Y-55113690D01*
X139267693Y-55018452D01*
X139220074Y-54970833D01*
X139124836Y-54923214D01*
X138886741Y-54923214D01*
X138791503Y-54970833D01*
X138743884Y-55018452D01*
X138696265Y-55113690D01*
X138696265Y-55304166D01*
X138743884Y-55399404D01*
X138791503Y-55447023D01*
X138886741Y-55494642D01*
X159270074Y-55955357D02*
X159317693Y-56002976D01*
X159365312Y-56145833D01*
X159365312Y-56241071D01*
X159317693Y-56383928D01*
X159222455Y-56479166D01*
X159127217Y-56526785D01*
X158936741Y-56574404D01*
X158793884Y-56574404D01*
X158603408Y-56526785D01*
X158508170Y-56479166D01*
X158412932Y-56383928D01*
X158365312Y-56241071D01*
X158365312Y-56145833D01*
X158412932Y-56002976D01*
X158460551Y-55955357D01*
X159365312Y-55002976D02*
X159365312Y-55574404D01*
X159365312Y-55288690D02*
X158365312Y-55288690D01*
X158508170Y-55383928D01*
X158603408Y-55479166D01*
X158651027Y-55574404D01*
X158365312Y-54669642D02*
X158365312Y-54050595D01*
X158746265Y-54383928D01*
X158746265Y-54241071D01*
X158793884Y-54145833D01*
X158841503Y-54098214D01*
X158936741Y-54050595D01*
X159174836Y-54050595D01*
X159270074Y-54098214D01*
X159317693Y-54145833D01*
X159365312Y-54241071D01*
X159365312Y-54526785D01*
X159317693Y-54622023D01*
X159270074Y-54669642D01*
X146429598Y-78852976D02*
X146429598Y-78376785D01*
X146715312Y-78948214D02*
X145715312Y-78614880D01*
X146715312Y-78281547D01*
X146715312Y-77424404D02*
X146715312Y-77995833D01*
X146715312Y-77710119D02*
X145715312Y-77710119D01*
X145858170Y-77805357D01*
X145953408Y-77900595D01*
X146001027Y-77995833D01*
X145810551Y-77043452D02*
X145762932Y-76995833D01*
X145715312Y-76900595D01*
X145715312Y-76662500D01*
X145762932Y-76567261D01*
X145810551Y-76519642D01*
X145905789Y-76472023D01*
X146001027Y-76472023D01*
X146143884Y-76519642D01*
X146715312Y-77091071D01*
X146715312Y-76472023D01*
X133691503Y-56092261D02*
X133739122Y-55949404D01*
X133786741Y-55901785D01*
X133881979Y-55854166D01*
X134024836Y-55854166D01*
X134120074Y-55901785D01*
X134167693Y-55949404D01*
X134215312Y-56044642D01*
X134215312Y-56425595D01*
X133215312Y-56425595D01*
X133215312Y-56092261D01*
X133262932Y-55997023D01*
X133310551Y-55949404D01*
X133405789Y-55901785D01*
X133501027Y-55901785D01*
X133596265Y-55949404D01*
X133643884Y-55997023D01*
X133691503Y-56092261D01*
X133691503Y-56425595D01*
X133215312Y-55235119D02*
X133215312Y-55139880D01*
X133262932Y-55044642D01*
X133310551Y-54997023D01*
X133405789Y-54949404D01*
X133596265Y-54901785D01*
X133834360Y-54901785D01*
X134024836Y-54949404D01*
X134120074Y-54997023D01*
X134167693Y-55044642D01*
X134215312Y-55139880D01*
X134215312Y-55235119D01*
X134167693Y-55330357D01*
X134120074Y-55377976D01*
X134024836Y-55425595D01*
X133834360Y-55473214D01*
X133596265Y-55473214D01*
X133405789Y-55425595D01*
X133310551Y-55377976D01*
X133262932Y-55330357D01*
X133215312Y-55235119D01*
X136654598Y-56451785D02*
X136654598Y-55975595D01*
X136940312Y-56547023D02*
X135940312Y-56213690D01*
X136940312Y-55880357D01*
X135940312Y-55642261D02*
X135940312Y-54975595D01*
X136940312Y-55404166D01*
X154104598Y-56376785D02*
X154104598Y-55900595D01*
X154390312Y-56472023D02*
X153390312Y-56138690D01*
X154390312Y-55805357D01*
X153390312Y-55281547D02*
X153390312Y-55186309D01*
X153437932Y-55091071D01*
X153485551Y-55043452D01*
X153580789Y-54995833D01*
X153771265Y-54948214D01*
X154009360Y-54948214D01*
X154199836Y-54995833D01*
X154295074Y-55043452D01*
X154342693Y-55091071D01*
X154390312Y-55186309D01*
X154390312Y-55281547D01*
X154342693Y-55376785D01*
X154295074Y-55424404D01*
X154199836Y-55472023D01*
X154009360Y-55519642D01*
X153771265Y-55519642D01*
X153580789Y-55472023D01*
X153485551Y-55424404D01*
X153437932Y-55376785D01*
X153390312Y-55281547D01*
X126166503Y-56143452D02*
X126214122Y-56000595D01*
X126261741Y-55952976D01*
X126356979Y-55905357D01*
X126499836Y-55905357D01*
X126595074Y-55952976D01*
X126642693Y-56000595D01*
X126690312Y-56095833D01*
X126690312Y-56476785D01*
X125690312Y-56476785D01*
X125690312Y-56143452D01*
X125737932Y-56048214D01*
X125785551Y-56000595D01*
X125880789Y-55952976D01*
X125976027Y-55952976D01*
X126071265Y-56000595D01*
X126118884Y-56048214D01*
X126166503Y-56143452D01*
X126166503Y-56476785D01*
X126690312Y-54952976D02*
X126690312Y-55524404D01*
X126690312Y-55238690D02*
X125690312Y-55238690D01*
X125833170Y-55333928D01*
X125928408Y-55429166D01*
X125976027Y-55524404D01*
X126690312Y-54000595D02*
X126690312Y-54572023D01*
X126690312Y-54286309D02*
X125690312Y-54286309D01*
X125833170Y-54381547D01*
X125928408Y-54476785D01*
X125976027Y-54572023D01*
X165937932Y-55200595D02*
X165890312Y-55295833D01*
X165890312Y-55438690D01*
X165937932Y-55581547D01*
X166033170Y-55676785D01*
X166128408Y-55724404D01*
X166318884Y-55772023D01*
X166461741Y-55772023D01*
X166652217Y-55724404D01*
X166747455Y-55676785D01*
X166842693Y-55581547D01*
X166890312Y-55438690D01*
X166890312Y-55343452D01*
X166842693Y-55200595D01*
X166795074Y-55152976D01*
X166461741Y-55152976D01*
X166461741Y-55343452D01*
X163340312Y-78535119D02*
X163340312Y-77916071D01*
X163721265Y-78249404D01*
X163721265Y-78106547D01*
X163768884Y-78011309D01*
X163816503Y-77963690D01*
X163911741Y-77916071D01*
X164149836Y-77916071D01*
X164245074Y-77963690D01*
X164292693Y-78011309D01*
X164340312Y-78106547D01*
X164340312Y-78392261D01*
X164292693Y-78487500D01*
X164245074Y-78535119D01*
X164245074Y-77487500D02*
X164292693Y-77439880D01*
X164340312Y-77487500D01*
X164292693Y-77535119D01*
X164245074Y-77487500D01*
X164340312Y-77487500D01*
X163340312Y-77106547D02*
X163340312Y-76487500D01*
X163721265Y-76820833D01*
X163721265Y-76677976D01*
X163768884Y-76582738D01*
X163816503Y-76535119D01*
X163911741Y-76487500D01*
X164149836Y-76487500D01*
X164245074Y-76535119D01*
X164292693Y-76582738D01*
X164340312Y-76677976D01*
X164340312Y-76963690D01*
X164292693Y-77058928D01*
X164245074Y-77106547D01*
X131216503Y-56067261D02*
X131264122Y-55924404D01*
X131311741Y-55876785D01*
X131406979Y-55829166D01*
X131549836Y-55829166D01*
X131645074Y-55876785D01*
X131692693Y-55924404D01*
X131740312Y-56019642D01*
X131740312Y-56400595D01*
X130740312Y-56400595D01*
X130740312Y-56067261D01*
X130787932Y-55972023D01*
X130835551Y-55924404D01*
X130930789Y-55876785D01*
X131026027Y-55876785D01*
X131121265Y-55924404D01*
X131168884Y-55972023D01*
X131216503Y-56067261D01*
X131216503Y-56400595D01*
X131740312Y-54876785D02*
X131740312Y-55448214D01*
X131740312Y-55162500D02*
X130740312Y-55162500D01*
X130883170Y-55257738D01*
X130978408Y-55352976D01*
X131026027Y-55448214D01*
X151341503Y-77742261D02*
X151389122Y-77599404D01*
X151436741Y-77551785D01*
X151531979Y-77504166D01*
X151674836Y-77504166D01*
X151770074Y-77551785D01*
X151817693Y-77599404D01*
X151865312Y-77694642D01*
X151865312Y-78075595D01*
X150865312Y-78075595D01*
X150865312Y-77742261D01*
X150912932Y-77647023D01*
X150960551Y-77599404D01*
X151055789Y-77551785D01*
X151151027Y-77551785D01*
X151246265Y-77599404D01*
X151293884Y-77647023D01*
X151341503Y-77742261D01*
X151341503Y-78075595D01*
X150865312Y-77170833D02*
X150865312Y-76551785D01*
X151246265Y-76885119D01*
X151246265Y-76742261D01*
X151293884Y-76647023D01*
X151341503Y-76599404D01*
X151436741Y-76551785D01*
X151674836Y-76551785D01*
X151770074Y-76599404D01*
X151817693Y-76647023D01*
X151865312Y-76742261D01*
X151865312Y-77027976D01*
X151817693Y-77123214D01*
X151770074Y-77170833D01*
X128616503Y-78643452D02*
X128664122Y-78500595D01*
X128711741Y-78452976D01*
X128806979Y-78405357D01*
X128949836Y-78405357D01*
X129045074Y-78452976D01*
X129092693Y-78500595D01*
X129140312Y-78595833D01*
X129140312Y-78976785D01*
X128140312Y-78976785D01*
X128140312Y-78643452D01*
X128187932Y-78548214D01*
X128235551Y-78500595D01*
X128330789Y-78452976D01*
X128426027Y-78452976D01*
X128521265Y-78500595D01*
X128568884Y-78548214D01*
X128616503Y-78643452D01*
X128616503Y-78976785D01*
X129140312Y-77452976D02*
X129140312Y-78024404D01*
X129140312Y-77738690D02*
X128140312Y-77738690D01*
X128283170Y-77833928D01*
X128378408Y-77929166D01*
X128426027Y-78024404D01*
X128140312Y-77119642D02*
X128140312Y-76500595D01*
X128521265Y-76833928D01*
X128521265Y-76691071D01*
X128568884Y-76595833D01*
X128616503Y-76548214D01*
X128711741Y-76500595D01*
X128949836Y-76500595D01*
X129045074Y-76548214D01*
X129092693Y-76595833D01*
X129140312Y-76691071D01*
X129140312Y-76976785D01*
X129092693Y-77072023D01*
X129045074Y-77119642D01*
X141554598Y-56376785D02*
X141554598Y-55900595D01*
X141840312Y-56472023D02*
X140840312Y-56138690D01*
X141840312Y-55805357D01*
X140840312Y-54995833D02*
X140840312Y-55472023D01*
X141316503Y-55519642D01*
X141268884Y-55472023D01*
X141221265Y-55376785D01*
X141221265Y-55138690D01*
X141268884Y-55043452D01*
X141316503Y-54995833D01*
X141411741Y-54948214D01*
X141649836Y-54948214D01*
X141745074Y-54995833D01*
X141792693Y-55043452D01*
X141840312Y-55138690D01*
X141840312Y-55376785D01*
X141792693Y-55472023D01*
X141745074Y-55519642D01*
X153816503Y-77767261D02*
X153864122Y-77624404D01*
X153911741Y-77576785D01*
X154006979Y-77529166D01*
X154149836Y-77529166D01*
X154245074Y-77576785D01*
X154292693Y-77624404D01*
X154340312Y-77719642D01*
X154340312Y-78100595D01*
X153340312Y-78100595D01*
X153340312Y-77767261D01*
X153387932Y-77672023D01*
X153435551Y-77624404D01*
X153530789Y-77576785D01*
X153626027Y-77576785D01*
X153721265Y-77624404D01*
X153768884Y-77672023D01*
X153816503Y-77767261D01*
X153816503Y-78100595D01*
X153673646Y-76672023D02*
X154340312Y-76672023D01*
X153292693Y-76910119D02*
X154006979Y-77148214D01*
X154006979Y-76529166D01*
X143954598Y-56351785D02*
X143954598Y-55875595D01*
X144240312Y-56447023D02*
X143240312Y-56113690D01*
X144240312Y-55780357D01*
X143573646Y-55018452D02*
X144240312Y-55018452D01*
X143192693Y-55256547D02*
X143906979Y-55494642D01*
X143906979Y-54875595D01*
%TO.C,J4*%
X169107380Y-48833333D02*
X169821666Y-48833333D01*
X169964523Y-48880952D01*
X170059761Y-48976190D01*
X170107380Y-49119047D01*
X170107380Y-49214285D01*
X169440714Y-47928571D02*
X170107380Y-47928571D01*
X169059761Y-48166666D02*
X169774047Y-48404761D01*
X169774047Y-47785714D01*
%TO.C,J6*%
X73166666Y-115492380D02*
X73166666Y-116206666D01*
X73119047Y-116349523D01*
X73023809Y-116444761D01*
X72880952Y-116492380D01*
X72785714Y-116492380D01*
X74071428Y-115492380D02*
X73880952Y-115492380D01*
X73785714Y-115540000D01*
X73738095Y-115587619D01*
X73642857Y-115730476D01*
X73595238Y-115920952D01*
X73595238Y-116301904D01*
X73642857Y-116397142D01*
X73690476Y-116444761D01*
X73785714Y-116492380D01*
X73976190Y-116492380D01*
X74071428Y-116444761D01*
X74119047Y-116397142D01*
X74166666Y-116301904D01*
X74166666Y-116063809D01*
X74119047Y-115968571D01*
X74071428Y-115920952D01*
X73976190Y-115873333D01*
X73785714Y-115873333D01*
X73690476Y-115920952D01*
X73642857Y-115968571D01*
X73595238Y-116063809D01*
%TO.C,J7*%
X111666666Y-61352380D02*
X111666666Y-62066666D01*
X111619047Y-62209523D01*
X111523809Y-62304761D01*
X111380952Y-62352380D01*
X111285714Y-62352380D01*
X112047619Y-61352380D02*
X112714285Y-61352380D01*
X112285714Y-62352380D01*
%TO.C,J5*%
X123297380Y-83833333D02*
X124011666Y-83833333D01*
X124154523Y-83880952D01*
X124249761Y-83976190D01*
X124297380Y-84119047D01*
X124297380Y-84214285D01*
X123297380Y-82880952D02*
X123297380Y-83357142D01*
X123773571Y-83404761D01*
X123725952Y-83357142D01*
X123678333Y-83261904D01*
X123678333Y-83023809D01*
X123725952Y-82928571D01*
X123773571Y-82880952D01*
X123868809Y-82833333D01*
X124106904Y-82833333D01*
X124202142Y-82880952D01*
X124249761Y-82928571D01*
X124297380Y-83023809D01*
X124297380Y-83261904D01*
X124249761Y-83357142D01*
X124202142Y-83404761D01*
%TO.C,A3*%
X86795714Y-71736666D02*
X87271904Y-71736666D01*
X86700476Y-72022380D02*
X87033809Y-71022380D01*
X87367142Y-72022380D01*
X87605238Y-71022380D02*
X88224285Y-71022380D01*
X87890952Y-71403333D01*
X88033809Y-71403333D01*
X88129047Y-71450952D01*
X88176666Y-71498571D01*
X88224285Y-71593809D01*
X88224285Y-71831904D01*
X88176666Y-71927142D01*
X88129047Y-71974761D01*
X88033809Y-72022380D01*
X87748095Y-72022380D01*
X87652857Y-71974761D01*
X87605238Y-71927142D01*
%TO.C,J2*%
X75666666Y-48622380D02*
X75666666Y-49336666D01*
X75619047Y-49479523D01*
X75523809Y-49574761D01*
X75380952Y-49622380D01*
X75285714Y-49622380D01*
X76095238Y-48717619D02*
X76142857Y-48670000D01*
X76238095Y-48622380D01*
X76476190Y-48622380D01*
X76571428Y-48670000D01*
X76619047Y-48717619D01*
X76666666Y-48812857D01*
X76666666Y-48908095D01*
X76619047Y-49050952D01*
X76047619Y-49622380D01*
X76666666Y-49622380D01*
%TO.C,A2*%
X86795714Y-44236666D02*
X87271904Y-44236666D01*
X86700476Y-44522380D02*
X87033809Y-43522380D01*
X87367142Y-44522380D01*
X87652857Y-43617619D02*
X87700476Y-43570000D01*
X87795714Y-43522380D01*
X88033809Y-43522380D01*
X88129047Y-43570000D01*
X88176666Y-43617619D01*
X88224285Y-43712857D01*
X88224285Y-43808095D01*
X88176666Y-43950952D01*
X87605238Y-44522380D01*
X88224285Y-44522380D01*
%TO.C,J1*%
X75666666Y-99322380D02*
X75666666Y-100036666D01*
X75619047Y-100179523D01*
X75523809Y-100274761D01*
X75380952Y-100322380D01*
X75285714Y-100322380D01*
X76666666Y-100322380D02*
X76095238Y-100322380D01*
X76380952Y-100322380D02*
X76380952Y-99322380D01*
X76285714Y-99465238D01*
X76190476Y-99560476D01*
X76095238Y-99608095D01*
%TO.C,J3*%
X75666666Y-76622380D02*
X75666666Y-77336666D01*
X75619047Y-77479523D01*
X75523809Y-77574761D01*
X75380952Y-77622380D01*
X75285714Y-77622380D01*
X76047619Y-76622380D02*
X76666666Y-76622380D01*
X76333333Y-77003333D01*
X76476190Y-77003333D01*
X76571428Y-77050952D01*
X76619047Y-77098571D01*
X76666666Y-77193809D01*
X76666666Y-77431904D01*
X76619047Y-77527142D01*
X76571428Y-77574761D01*
X76476190Y-77622380D01*
X76190476Y-77622380D01*
X76095238Y-77574761D01*
X76047619Y-77527142D01*
%TO.C,A1*%
X86795714Y-94736666D02*
X87271904Y-94736666D01*
X86700476Y-95022380D02*
X87033809Y-94022380D01*
X87367142Y-95022380D01*
X88224285Y-95022380D02*
X87652857Y-95022380D01*
X87938571Y-95022380D02*
X87938571Y-94022380D01*
X87843333Y-94165238D01*
X87748095Y-94260476D01*
X87652857Y-94308095D01*
D12*
%TO.C,J8*%
X108830000Y-82270000D02*
X106170000Y-82270000D01*
X108830000Y-83540000D02*
X108830000Y-84870000D01*
X108830000Y-79670000D02*
X106170000Y-79670000D01*
X106170000Y-82270000D02*
X106170000Y-79670000D01*
X108830000Y-84870000D02*
X107500000Y-84870000D01*
X108830000Y-82270000D02*
X108830000Y-79670000D01*
%TO.C,U1*%
X170587932Y-62512500D02*
X168112932Y-62512500D01*
X168112932Y-62512500D02*
X168112932Y-69312500D01*
X168112932Y-69312500D02*
X170587932Y-69312500D01*
X170587932Y-69312500D02*
X170587932Y-62512500D01*
X123787068Y-53287500D02*
X172212932Y-53287500D01*
X172212932Y-53287500D02*
X172212932Y-79712500D01*
X172212932Y-79712500D02*
X123787068Y-79712500D01*
X123787068Y-79712500D02*
X123787068Y-53287500D01*
%TO.C,J4*%
X166055000Y-47170000D02*
X166055000Y-49830000D01*
X166055000Y-47170000D02*
X125355000Y-47170000D01*
X168655000Y-47170000D02*
X168655000Y-48500000D01*
X125355000Y-47170000D02*
X125355000Y-49830000D01*
X166055000Y-49830000D02*
X125355000Y-49830000D01*
X167325000Y-47170000D02*
X168655000Y-47170000D01*
%TO.C,J6*%
X74170000Y-118500000D02*
X74170000Y-117170000D01*
X74170000Y-117170000D02*
X75500000Y-117170000D01*
X74170000Y-119770000D02*
X74170000Y-122370000D01*
X74170000Y-122370000D02*
X76830000Y-122370000D01*
X76830000Y-119770000D02*
X76830000Y-122370000D01*
X74170000Y-119770000D02*
X76830000Y-119770000D01*
%TO.C,J7*%
X110670000Y-65500000D02*
X113330000Y-65500000D01*
X110670000Y-65500000D02*
X110670000Y-68100000D01*
X110670000Y-64230000D02*
X110670000Y-62900000D01*
X113330000Y-65500000D02*
X113330000Y-68100000D01*
X110670000Y-62900000D02*
X112000000Y-62900000D01*
X110670000Y-68100000D02*
X113330000Y-68100000D01*
%TO.C,J5*%
X126175000Y-84830000D02*
X124845000Y-84830000D01*
X127445000Y-82170000D02*
X168145000Y-82170000D01*
X168145000Y-84830000D02*
X168145000Y-82170000D01*
X124845000Y-84830000D02*
X124845000Y-83500000D01*
X127445000Y-84830000D02*
X127445000Y-82170000D01*
X127445000Y-84830000D02*
X168145000Y-84830000D01*
%TO.C,A3*%
X95260000Y-93290000D02*
X95260000Y-72710000D01*
X92590000Y-72710000D02*
X92590000Y-93290000D01*
X82430000Y-75380000D02*
X79760000Y-75380000D01*
X79760000Y-72710000D02*
X79760000Y-74110000D01*
X79760000Y-93290000D02*
X95260000Y-93290000D01*
X79760000Y-75380000D02*
X79760000Y-93290000D01*
X95260000Y-72710000D02*
X82430000Y-72710000D01*
X82430000Y-75380000D02*
X82430000Y-93290000D01*
X82430000Y-72710000D02*
X82430000Y-75380000D01*
X81160000Y-72710000D02*
X79760000Y-72710000D01*
%TO.C,J2*%
X74670000Y-50170000D02*
X76000000Y-50170000D01*
X74670000Y-52770000D02*
X77330000Y-52770000D01*
X77330000Y-52770000D02*
X77330000Y-60450000D01*
X74670000Y-60450000D02*
X77330000Y-60450000D01*
X74670000Y-52770000D02*
X74670000Y-60450000D01*
X74670000Y-51500000D02*
X74670000Y-50170000D01*
%TO.C,A2*%
X95260000Y-45210000D02*
X82430000Y-45210000D01*
X92590000Y-45210000D02*
X92590000Y-65790000D01*
X79760000Y-47880000D02*
X79760000Y-65790000D01*
X81160000Y-45210000D02*
X79760000Y-45210000D01*
X82430000Y-47880000D02*
X79760000Y-47880000D01*
X82430000Y-45210000D02*
X82430000Y-47880000D01*
X79760000Y-65790000D02*
X95260000Y-65790000D01*
X79760000Y-45210000D02*
X79760000Y-46610000D01*
X95260000Y-65790000D02*
X95260000Y-45210000D01*
X82430000Y-47880000D02*
X82430000Y-65790000D01*
%TO.C,J1*%
X74670000Y-103470000D02*
X74670000Y-111150000D01*
X74670000Y-102200000D02*
X74670000Y-100870000D01*
X74670000Y-103470000D02*
X77330000Y-103470000D01*
X74670000Y-111150000D02*
X77330000Y-111150000D01*
X74670000Y-100870000D02*
X76000000Y-100870000D01*
X77330000Y-103470000D02*
X77330000Y-111150000D01*
%TO.C,J3*%
X77330000Y-80770000D02*
X77330000Y-88450000D01*
X74670000Y-80770000D02*
X77330000Y-80770000D01*
X74670000Y-88450000D02*
X77330000Y-88450000D01*
X74670000Y-80770000D02*
X74670000Y-88450000D01*
X74670000Y-78170000D02*
X76000000Y-78170000D01*
X74670000Y-79500000D02*
X74670000Y-78170000D01*
%TO.C,A1*%
X79760000Y-98380000D02*
X79760000Y-116290000D01*
X79760000Y-116290000D02*
X95260000Y-116290000D01*
X95260000Y-116290000D02*
X95260000Y-95710000D01*
X79760000Y-95710000D02*
X79760000Y-97110000D01*
X81160000Y-95710000D02*
X79760000Y-95710000D01*
X92590000Y-95710000D02*
X92590000Y-116290000D01*
X95260000Y-95710000D02*
X82430000Y-95710000D01*
X82430000Y-98380000D02*
X79760000Y-98380000D01*
X82430000Y-98380000D02*
X82430000Y-116290000D01*
X82430000Y-95710000D02*
X82430000Y-98380000D01*
%TD*%
M02*
